<?xml version="1.0" encoding="UTF-8" standalone="no"?>
<!DOCTYPE svg PUBLIC "-//W3C//DTD SVG 1.1//EN" "http://www.w3.org/Graphics/SVG/1.1/DTD/svg11.dtd">
<svg width="100%" height="100%" viewBox="0 0 1280 800" version="1.1" xmlns="http://www.w3.org/2000/svg" xmlns:xlink="http://www.w3.org/1999/xlink" xml:space="preserve" xmlns:serif="http://www.serif.com/" style="fill-rule:evenodd;clip-rule:evenodd;stroke-linecap:round;stroke-miterlimit:10;">
    <g transform="matrix(1,0,0,1,782.941,408)">
        <path d="M0,-21.5L0,-22C0,-9.574 -10.074,0.5 -22.5,0.5L-23,0.5L-36,0.5" style="fill:none;stroke:black;stroke-width:5.67px;"/>
    </g>
    <g transform="matrix(0,1,1,0,808.441,349)">
        <path d="M-25.5,-25.5L25.5,-25.5" style="fill:none;stroke:black;stroke-width:5.67px;"/>
    </g>
    <g transform="matrix(1,0,0,1,793.941,323.5)">
        <path d="M0,-11C0,-4.925 -4.925,0 -11,0C-17.075,0 -22,-4.925 -22,-11" style="fill:none;stroke:black;stroke-width:5.67px;"/>
    </g>
    <g transform="matrix(1,0,0,1,640.441,472.646)">
        <path d="M0,-75.646C-41.428,-75.646 -79.925,-77.798 -111.914,-81.485C-111.956,-81.49 -111.997,-81.495 -112.039,-81.5C-99.472,-31.316 -54.08,5.854 0,5.854C54.08,5.854 99.472,-31.316 112.039,-81.5C111.997,-81.495 111.956,-81.49 111.914,-81.485C79.925,-77.798 41.428,-75.646 0,-75.646" style="fill:white;fill-rule:nonzero;"/>
    </g>
    <g transform="matrix(1,0,0,1,640.441,472.646)">
        <path d="M0,-75.646C-41.428,-75.646 -79.925,-77.798 -111.914,-81.485C-111.956,-81.49 -111.997,-81.495 -112.039,-81.5C-99.472,-31.316 -54.08,5.854 0,5.854C54.08,5.854 99.472,-31.316 112.039,-81.5C111.997,-81.495 111.956,-81.49 111.914,-81.485C79.925,-77.798 41.428,-75.646 0,-75.646Z" style="fill:none;stroke:black;stroke-width:5.67px;"/>
    </g>
    <g transform="matrix(1,0,0,1,640.441,247.5)">
        <path d="M0,139.5C44.134,139.5 84.262,136.987 114.12,132.885C114.147,132.881 114.173,132.877 114.199,132.874C115.055,127.207 115.5,121.405 115.5,115.5C115.5,51.711 63.789,0 0,0C-63.789,0 -115.5,51.711 -115.5,115.5C-115.5,121.405 -115.055,127.207 -114.199,132.874C-114.173,132.877 -114.147,132.881 -114.12,132.885C-84.262,136.987 -44.134,139.5 0,139.5" style="fill:white;fill-rule:nonzero;"/>
    </g>
    <g transform="matrix(1,0,0,1,640.441,247.5)">
        <path d="M0,139.5C44.134,139.5 84.262,136.987 114.12,132.885C114.147,132.881 114.173,132.877 114.199,132.874C115.055,127.207 115.5,121.405 115.5,115.5C115.5,51.711 63.789,0 0,0C-63.789,0 -115.5,51.711 -115.5,115.5C-115.5,121.405 -115.055,127.207 -114.199,132.874C-114.173,132.877 -114.147,132.881 -114.12,132.885C-84.262,136.987 -44.134,139.5 0,139.5Z" style="fill:none;stroke:black;stroke-width:5.67px;"/>
    </g>
    <g transform="matrix(1,0,0,1,613.015,313.5)">
        <path d="M0,0C0,2.761 -2.239,5 -5,5C-7.761,5 -10,2.761 -10,0C-10,-2.761 -7.761,-5 -5,-5C-2.239,-5 0,-2.761 0,0" style="fill-rule:nonzero;"/>
    </g>
    <g transform="matrix(1,0,0,1,676.984,313.5)">
        <path d="M0,0C0,2.761 -2.239,5 -5,5C-7.761,5 -10,2.761 -10,0C-10,-2.761 -7.761,-5 -5,-5C-2.239,-5 0,-2.761 0,0" style="fill-rule:nonzero;"/>
    </g>
    <g transform="matrix(1,0,0,1,664.927,366.714)">
        <path d="M0,-24.927C0,-11.16 -11.16,0 -24.927,0C-38.694,0 -49.854,-11.16 -49.854,-24.927" style="fill:none;stroke:black;stroke-width:5.67px;"/>
    </g>
    <g transform="matrix(1,0,0,1,607.941,516)">
        <path d="M0,-21.5L0,-22C0,-9.574 -10.074,0.5 -22.5,0.5L-23,0.5L-36,0.5" style="fill:none;stroke:black;stroke-width:5.67px;"/>
    </g>
    <g transform="matrix(1,0,0,1,671.941,516)">
        <path d="M0,-21.5L0,-22C0,-9.574 -10.074,0.5 -22.5,0.5L-23,0.5L-36,0.5" style="fill:none;stroke:black;stroke-width:5.67px;"/>
    </g>
    <g transform="matrix(0,-1,-1,0,681.941,484.5)">
        <path d="M-10,10L10,10" style="fill:none;stroke:black;stroke-width:5.67px;"/>
    </g>
    <g transform="matrix(0,-1,-1,0,622.941,479.5)">
        <path d="M-15,15L15,15" style="fill:none;stroke:black;stroke-width:5.67px;"/>
    </g>
    <g transform="matrix(1,0,0,1,571.441,516.5)">
        <path d="M0,36C-3.575,36 -6.5,33.075 -6.5,29.5L-6.5,6.5C-6.5,2.925 -3.575,0 0,0C3.575,0 6.5,2.925 6.5,6.5L6.5,29.5C6.5,33.075 3.575,36 0,36Z" style="fill:none;stroke:black;stroke-width:5.67px;"/>
    </g>
    <g transform="matrix(1,0,0,1,635.441,516.5)">
        <path d="M0,36C-3.575,36 -6.5,33.075 -6.5,29.5L-6.5,6.5C-6.5,2.925 -3.575,0 0,0C3.575,0 6.5,2.925 6.5,6.5L6.5,29.5C6.5,33.075 3.575,36 0,36Z" style="fill:none;stroke:black;stroke-width:5.67px;"/>
    </g>
    <g transform="matrix(1,0,0,1,598.958,303.5)">
        <path d="M0,-48.73C2.54,-44.054 3.983,-38.695 3.983,-33C3.983,-14.774 -10.792,0 -29.017,0C-37.727,0 -45.649,-3.375 -51.547,-8.887" style="fill:none;stroke:black;stroke-width:5.67px;"/>
    </g>
    <g transform="matrix(1,0,0,1,663.657,365.5)">
        <path d="M0,21.049C9.271,8.293 24.309,0 41.284,0C55.847,0 68.984,6.103 78.277,15.892" style="fill:none;stroke:black;stroke-width:5.67px;"/>
    </g>
    <g transform="matrix(1,0,0,1,691.923,397.284)">
        <path d="M0,68.54C-21.861,62.786 -37.982,42.884 -37.982,19.216C-37.982,12.418 -36.652,5.931 -34.238,0" style="fill:none;stroke:black;stroke-width:5.67px;"/>
    </g>
    <g transform="matrix(0,-1,-1,0,607.941,409.5)">
        <circle cx="-17" cy="0" r="17" style="fill:none;stroke:black;stroke-width:5.67px;"/>
    </g>
    <g transform="matrix(1,0,0,1,528.086,339.679)">
        <path d="M0,51.482C31.988,55.17 70.485,57.321 111.914,57.321C153.342,57.321 191.839,55.17 223.827,51.482C277.554,45.289 312.914,34.764 312.914,22.821C312.914,10.878 277.554,0.354 223.827,-5.839C224.729,-2.31 225.466,1.285 226.034,4.937C258.573,9.407 278.914,15.765 278.914,22.821C278.914,29.878 258.573,36.236 226.034,40.706C196.176,44.809 156.048,47.321 111.914,47.321C67.779,47.321 27.651,44.809 -2.207,40.706C-34.746,36.236 -55.086,29.878 -55.086,22.821C-55.086,15.765 -34.746,9.407 -2.207,4.937C-1.639,1.285 -0.901,-2.31 0,-5.839C-53.727,0.354 -89.086,10.878 -89.086,22.821C-89.086,34.764 -53.727,45.289 0,51.482Z" style="fill:none;stroke:black;stroke-width:5.67px;stroke-linecap:butt;"/>
    </g>
    <g transform="matrix(1,0,0,1,546.941,478.5)">
        <path d="M0,11C0,4.925 4.925,0 11,0C17.075,0 22,4.925 22,11" style="fill:none;stroke:black;stroke-width:5.67px;"/>
    </g>
    <g transform="matrix(0,1,1,0,592.441,443)">
        <path d="M-34.5,-34.5L34.5,-34.5" style="fill:none;stroke:black;stroke-width:5.67px;"/>
    </g>
</svg>
